<svg xmlns="http://www.w3.org/2000/svg" xmlns:xlink="http://www.w3.org/1999/xlink" width="300" zoomAndPan="magnify" viewBox="0 0 224.87999 383.999986" height="512" preserveAspectRatio="xMidYMid meet" version="1.0"><defs><clipPath id="641653d195"><path d="M 15 35 L 217.984375 35 L 217.984375 350 L 15 350 Z M 15 35 " clip-rule="nonzero"/></clipPath><clipPath id="10d37f0c49"><path d="M 6.597656 120 L 32 120 L 32 132 L 6.597656 132 Z M 6.597656 120 " clip-rule="nonzero"/></clipPath><clipPath id="da9005b8b6"><path d="M 6.597656 156 L 32 156 L 32 168 L 6.597656 168 Z M 6.597656 156 " clip-rule="nonzero"/></clipPath><clipPath id="bcfb8ccc5d"><path d="M 6.597656 192 L 32 192 L 32 205 L 6.597656 205 Z M 6.597656 192 " clip-rule="nonzero"/></clipPath><clipPath id="7e4b54d0a8"><path d="M 6.597656 229 L 32 229 L 32 241 L 6.597656 241 Z M 6.597656 229 " clip-rule="nonzero"/></clipPath><clipPath id="9679b50675"><path d="M 6.597656 265 L 32 265 L 32 277 L 6.597656 277 Z M 6.597656 265 " clip-rule="nonzero"/></clipPath><clipPath id="0297ed44c5"><path d="M 6.597656 301 L 32 301 L 32 313 L 6.597656 313 Z M 6.597656 301 " clip-rule="nonzero"/></clipPath></defs><g clip-path="url(#641653d195)"><path fill="#11100e" d="M 207.492188 332.527344 C 207.492188 337.125 203.773438 340.851562 199.195312 340.851562 L 29.941406 342.113281 L 173.332031 316.296875 C 177.78125 315 180.847656 310.914062 180.847656 306.265625 L 180.847656 84.222656 C 180.847656 80.207031 184.09375 76.957031 188.089844 76.957031 L 200.246094 76.957031 C 204.253906 76.957031 207.492188 80.207031 207.492188 84.222656 Z M 51.34375 113.355469 L 146.933594 86.742188 L 146.933594 118.867188 L 51.34375 143.332031 Z M 210.667969 66.527344 L 180.847656 66.527344 L 180.847656 45.804688 C 180.847656 39.171875 174.53125 34.371094 168.148438 36.160156 L 22.714844 76.855469 C 18.394531 78.070312 15.398438 82.015625 15.398438 86.511719 L 15.398438 120.082031 L 26.460938 117.992188 C 29.699219 117.382812 32.824219 119.558594 33.445312 122.863281 L 33.609375 123.714844 C 34.230469 127.019531 32.113281 130.191406 28.878906 130.804688 L 15.398438 133.34375 L 15.398438 156.289062 L 26.460938 154.191406 C 29.699219 153.582031 32.824219 155.769531 33.445312 159.0625 L 33.609375 159.914062 C 34.230469 163.21875 32.113281 166.390625 28.878906 167.003906 L 15.398438 169.550781 L 15.398438 192.488281 L 26.460938 190.402344 C 29.699219 189.789062 32.824219 191.96875 33.445312 195.269531 L 33.609375 196.125 C 34.230469 199.425781 32.113281 202.589844 28.878906 203.199219 L 15.398438 205.75 L 15.398438 228.6875 L 26.460938 226.601562 C 29.699219 225.988281 32.824219 228.167969 33.445312 231.46875 L 33.609375 232.324219 C 34.230469 235.625 32.113281 238.796875 28.878906 239.410156 L 15.398438 241.960938 L 15.398438 264.898438 L 26.460938 262.808594 C 29.699219 262.199219 32.824219 264.375 33.445312 267.679688 L 33.609375 268.523438 C 34.230469 271.824219 32.113281 274.996094 28.878906 275.609375 L 15.398438 278.160156 L 15.398438 301.097656 L 26.460938 299.007812 C 29.699219 298.398438 32.824219 300.574219 33.445312 303.878906 L 33.609375 304.730469 C 34.230469 308.035156 32.113281 311.207031 28.878906 311.820312 L 15.398438 314.359375 L 15.398438 338.179688 C 15.398438 343.601562 19.539062 347.578125 24.578125 347.9375 C 25.492188 348.027344 25.5 347.976562 26.324219 347.976562 L 209.617188 349.625 C 214.195312 349.625 217.914062 345.898438 217.914062 341.3125 L 217.914062 73.785156 C 217.914062 69.777344 214.667969 66.527344 210.667969 66.527344 " fill-opacity="1" fill-rule="nonzero"/></g><g clip-path="url(#10d37f0c49)"><path fill="#11100e" d="M 10.21875 131.617188 C 10.417969 131.617188 10.628906 131.597656 10.828125 131.554688 L 28.398438 128.234375 C 30.210938 127.890625 31.402344 126.074219 31.050781 124.199219 L 30.890625 123.34375 C 30.582031 121.699219 29.179688 120.503906 27.554688 120.503906 C 27.355469 120.503906 27.152344 120.523438 26.945312 120.5625 L 9.386719 123.875 C 8.515625 124.035156 7.753906 124.546875 7.253906 125.300781 C 6.742188 126.066406 6.5625 126.988281 6.730469 127.921875 L 6.890625 128.765625 C 7.203125 130.410156 8.605469 131.617188 10.21875 131.617188 " fill-opacity="1" fill-rule="nonzero"/></g><g clip-path="url(#da9005b8b6)"><path fill="#11100e" d="M 10.21875 167.816406 C 10.417969 167.816406 10.628906 167.796875 10.828125 167.753906 L 28.398438 164.433594 C 30.210938 164.089844 31.402344 162.285156 31.050781 160.398438 L 30.890625 159.554688 C 30.582031 157.90625 29.179688 156.703125 27.554688 156.703125 C 27.355469 156.703125 27.152344 156.722656 26.945312 156.761719 L 9.386719 160.074219 C 8.515625 160.246094 7.753906 160.746094 7.253906 161.5 C 6.742188 162.265625 6.5625 163.199219 6.730469 164.121094 L 6.890625 164.972656 C 7.203125 166.621094 8.605469 167.816406 10.21875 167.816406 " fill-opacity="1" fill-rule="nonzero"/></g><g clip-path="url(#bcfb8ccc5d)"><path fill="#11100e" d="M 10.21875 204.015625 C 10.417969 204.015625 10.628906 203.996094 10.828125 203.964844 L 28.398438 200.640625 C 30.210938 200.289062 31.402344 198.484375 31.050781 196.605469 L 30.890625 195.753906 C 30.582031 194.105469 29.179688 192.910156 27.554688 192.910156 C 27.355469 192.910156 27.152344 192.933594 26.945312 192.960938 L 9.386719 196.285156 C 8.515625 196.445312 7.753906 196.945312 7.253906 197.699219 C 6.742188 198.464844 6.5625 199.398438 6.730469 200.320312 L 6.890625 201.171875 C 7.203125 202.820312 8.605469 204.015625 10.21875 204.015625 " fill-opacity="1" fill-rule="nonzero"/></g><g clip-path="url(#7e4b54d0a8)"><path fill="#11100e" d="M 10.21875 240.222656 C 10.417969 240.222656 10.628906 240.203125 10.828125 240.164062 L 28.398438 236.839844 C 30.210938 236.5 31.402344 234.691406 31.050781 232.804688 L 30.890625 231.953125 C 30.582031 230.304688 29.179688 229.109375 27.554688 229.109375 C 27.355469 229.109375 27.152344 229.128906 26.945312 229.171875 L 9.386719 232.484375 C 8.515625 232.644531 7.753906 233.15625 7.253906 233.910156 C 6.742188 234.671875 6.5625 235.597656 6.730469 236.527344 L 6.890625 237.371094 C 7.203125 239.027344 8.605469 240.222656 10.21875 240.222656 " fill-opacity="1" fill-rule="nonzero"/></g><g clip-path="url(#9679b50675)"><path fill="#11100e" d="M 10.21875 276.421875 C 10.417969 276.421875 10.628906 276.402344 10.828125 276.371094 L 28.398438 273.050781 C 30.210938 272.699219 31.402344 270.890625 31.050781 269.003906 L 30.890625 268.160156 C 30.582031 266.515625 29.179688 265.308594 27.554688 265.308594 C 27.355469 265.308594 27.152344 265.328125 26.945312 265.371094 L 9.386719 268.683594 C 8.515625 268.855469 7.753906 269.355469 7.253906 270.109375 C 6.742188 270.871094 6.5625 271.804688 6.730469 272.726562 L 6.890625 273.582031 C 7.203125 275.226562 8.605469 276.421875 10.21875 276.421875 " fill-opacity="1" fill-rule="nonzero"/></g><g clip-path="url(#0297ed44c5)"><path fill="#11100e" d="M 31.050781 305.214844 L 30.890625 304.359375 C 30.582031 302.714844 29.179688 301.519531 27.554688 301.519531 C 27.355469 301.519531 27.152344 301.539062 26.945312 301.578125 L 9.386719 304.890625 C 8.515625 305.050781 7.753906 305.554688 7.253906 306.316406 C 6.742188 307.082031 6.5625 308.003906 6.730469 308.9375 L 6.890625 309.78125 C 7.203125 311.425781 8.605469 312.632812 10.21875 312.632812 C 10.417969 312.632812 10.628906 312.613281 10.828125 312.570312 L 28.398438 309.25 C 30.210938 308.898438 31.402344 307.089844 31.050781 305.214844 " fill-opacity="1" fill-rule="nonzero"/></g><path fill="#11100e" d="M 86.097656 127.933594 C 86.066406 125.390625 86.046875 124.15625 86.015625 121.679688 C 89.84375 120.613281 91.71875 120.082031 95.46875 119.007812 C 95.4375 117.921875 95.417969 117.390625 95.386719 116.308594 C 91.667969 117.402344 89.796875 117.945312 85.988281 119.027344 C 85.957031 116.71875 85.949219 115.5625 85.917969 113.195312 C 90.296875 111.898438 92.421875 111.269531 96.679688 109.972656 C 96.660156 108.808594 96.648438 108.214844 96.640625 107.03125 C 91.089844 108.71875 88.261719 109.582031 82.539062 111.269531 C 82.519531 119.789062 82.519531 123.273438 82.511719 131.785156 C 88.851562 130.171875 91.570312 129.4375 97.390625 127.800781 C 97.382812 126.617188 97.371094 126.023438 97.339844 124.859375 C 92.871094 126.113281 90.636719 126.738281 86.097656 127.933594 " fill-opacity="1" fill-rule="nonzero"/><path fill="#11100e" d="M 138.4375 93.941406 C 138.46875 98.257812 138.457031 100.695312 138.457031 105.433594 C 138.457031 106.488281 138.355469 107.542969 138.175781 108.578125 C 137.988281 109.621094 137.675781 110.574219 137.246094 111.4375 C 136.804688 112.300781 136.222656 113.054688 135.5 113.695312 C 134.78125 114.339844 133.859375 114.800781 132.753906 115.082031 C 131.664062 115.363281 130.742188 115.382812 129.980469 115.132812 C 129.21875 114.890625 128.605469 114.460938 128.144531 113.835938 C 127.675781 113.226562 127.335938 112.472656 127.113281 111.570312 C 126.902344 110.675781 126.773438 109.710938 126.753906 108.679688 C 126.621094 104.152344 126.550781 101.851562 126.503906 97.535156 C 125.097656 97.976562 124.398438 98.199219 122.996094 98.648438 C 123.046875 102.957031 123.144531 105.214844 123.316406 109.683594 C 123.367188 111.117188 123.578125 112.441406 123.945312 113.675781 C 124.308594 114.902344 124.867188 115.914062 125.609375 116.730469 C 126.351562 117.550781 127.3125 118.09375 128.488281 118.386719 C 129.667969 118.675781 131.09375 118.597656 132.777344 118.175781 C 134.398438 117.761719 135.773438 117.148438 136.914062 116.296875 C 138.046875 115.453125 138.96875 114.460938 139.671875 113.265625 C 140.382812 112.082031 140.902344 110.753906 141.222656 109.269531 C 141.554688 107.785156 141.722656 106.226562 141.722656 104.601562 C 141.753906 99.8125 141.773438 97.335938 141.722656 93.027344 C 140.429688 93.367188 139.769531 93.558594 138.4375 93.941406 " fill-opacity="1" fill-rule="nonzero"/><path fill="#11100e" d="M 114.886719 101.289062 C 114.96875 107.414062 115.277344 110.503906 115.570312 116.648438 C 110.417969 111.898438 107.703125 109.761719 102.921875 105.09375 C 101.902344 105.414062 101.390625 105.574219 100.367188 105.886719 C 100.457031 114.390625 100.878906 118.292969 100.96875 126.789062 C 102.3125 126.40625 102.972656 126.214844 104.316406 125.832031 C 104.246094 119.859375 104.015625 116.988281 103.785156 111.105469 C 108.703125 115.542969 111.472656 117.78125 116.359375 122.429688 C 117.472656 122.121094 118.023438 121.957031 119.148438 121.65625 C 119.015625 113.15625 118.476562 108.65625 118.355469 100.164062 C 116.953125 100.617188 116.261719 100.847656 114.886719 101.289062 " fill-opacity="1" fill-rule="nonzero"/><path fill="#11100e" d="M 67.007812 127.792969 C 64.300781 123.675781 62.917969 121.839844 60.101562 117.339844 C 58.679688 117.691406 57.96875 117.875 56.554688 118.214844 C 56.644531 126.726562 56.6875 129.636719 56.777344 138.132812 C 58.078125 137.820312 58.71875 137.660156 60.003906 137.359375 C 59.960938 131.253906 59.941406 128.773438 59.902344 123.113281 C 62.429688 126.789062 63.660156 128.464844 66.074219 132.277344 C 66.796875 132.097656 67.148438 132.007812 67.871094 131.835938 C 70.355469 126.808594 71.648438 124.457031 74.253906 119.378906 C 74.164062 125.179688 74.113281 127.800781 74.011719 133.925781 C 75.363281 133.582031 76.046875 133.414062 77.441406 133.0625 C 77.558594 124.558594 77.621094 121.175781 77.738281 112.652344 C 76.296875 113.066406 75.574219 113.265625 74.140625 113.65625 C 71.238281 119.640625 69.785156 122.300781 67.007812 127.792969 " fill-opacity="1" fill-rule="nonzero"/></svg>