<svg xmlns="http://www.w3.org/2000/svg" xmlns:xlink="http://www.w3.org/1999/xlink" width="1270" zoomAndPan="magnify" viewBox="0 0 952.5 221.249992" height="295" preserveAspectRatio="xMidYMid meet" version="1.0"><defs><g/></defs><g fill="#000000" fill-opacity="1"><g transform="translate(364.912754, 198.971252)"><g><path d="M 22.492188 -25.449219 C 28.824219 -25.285156 34.113281 -26.699219 37.820312 -29.699219 C 41.484375 -32.65625 43.570312 -37.113281 43.570312 -43.109375 C 43.570312 -45.609375 43.195312 -47.777344 42.445312 -49.566406 C 40.945312 -53.191406 38.320312 -55.523438 34.738281 -56.730469 C 31.15625 -57.898438 26.074219 -58.023438 20.953125 -57.730469 C 18.367188 -57.5625 15.785156 -57.480469 13.246094 -57.480469 L 6.871094 -57.480469 L 7.246094 -51.691406 C 7.457031 -48.191406 7.664062 -43.652344 7.664062 -39.027344 L 7.664062 -18.328125 C 7.664062 -13.785156 7.496094 -9.246094 7.332031 -5.75 C 7.207031 -3.707031 7.121094 -1.792969 7.039062 0 L 17.703125 0 C 17.535156 -1.792969 17.410156 -3.707031 17.285156 -5.75 C 17.078125 -9.246094 16.910156 -13.785156 16.910156 -18.328125 L 16.910156 -53.648438 C 18.203125 -53.648438 19.453125 -53.648438 20.703125 -53.691406 C 21.949219 -53.730469 23.160156 -53.730469 24.324219 -53.691406 C 26.824219 -53.566406 29.40625 -52.855469 31.40625 -51.191406 C 33.40625 -49.484375 34.738281 -46.777344 34.738281 -42.652344 C 34.738281 -38.195312 33.53125 -35.28125 31.863281 -33.320312 C 30.199219 -31.324219 27.992188 -30.363281 26.117188 -29.863281 C 24.242188 -29.363281 22.535156 -29.40625 21.867188 -29.449219 L 19.785156 -29.574219 L 21.242188 -25.492188 Z M 22.492188 -25.449219 "/></g></g></g><g fill="#000000" fill-opacity="1"><g transform="translate(441.760919, 198.971252)"><g><path d="M 15.121094 -42.359375 C 15.121094 -43.777344 15.160156 -45.359375 15.203125 -47.109375 C 15.328125 -50.566406 15.453125 -53.816406 15.621094 -57.480469 L 5.164062 -57.480469 C 5.25 -55.605469 5.332031 -53.648438 5.457031 -51.609375 C 5.582031 -48.109375 5.75 -43.484375 5.75 -38.820312 L 5.75 -26.90625 C 5.75 -18.703125 7.289062 -11.621094 11.371094 -6.621094 C 15.453125 -1.625 22.117188 1.332031 32.40625 1.332031 C 40.527344 1.332031 46.859375 -1 51.191406 -5.996094 C 55.523438 -10.953125 57.8125 -18.492188 57.8125 -28.867188 L 57.8125 -39.070312 C 57.8125 -41.359375 57.855469 -43.570312 57.898438 -45.777344 C 58.023438 -50.148438 58.230469 -53.816406 58.4375 -57.480469 L 51.816406 -57.480469 C 51.898438 -55.648438 51.984375 -53.730469 52.109375 -51.691406 C 52.234375 -48.191406 52.398438 -43.609375 52.398438 -39.070312 L 52.398438 -28.824219 C 52.398438 -19.367188 50.398438 -12.914062 47.066406 -8.789062 C 43.695312 -4.625 38.902344 -2.875 33.40625 -2.875 C 28.28125 -2.875 24.535156 -4.539062 21.785156 -7.289062 C 19.035156 -10.039062 17.328125 -13.910156 16.328125 -18.285156 C 15.285156 -22.660156 14.953125 -27.617188 14.996094 -32.488281 Z M 15.121094 -42.359375 "/></g></g></g><g fill="#000000" fill-opacity="1"><g transform="translate(536.890997, 198.971252)"><g><path d="M 7.664062 -18.328125 C 7.664062 -13.785156 7.496094 -9.246094 7.332031 -5.75 C 7.207031 -3.707031 7.121094 -1.792969 7.039062 0 L 12.289062 0 C 13.664062 0 15.035156 0 16.453125 0.0429688 C 19.242188 0.125 21.824219 0.207031 23.867188 0.292969 C 24.867188 0.332031 25.65625 0.375 26.242188 0.375 C 34.53125 0.375 40.238281 -1.667969 43.902344 -4.832031 C 47.527344 -7.957031 49.066406 -12.121094 49.066406 -16.453125 C 49.066406 -21.492188 47.066406 -25.117188 43.777344 -27.574219 C 40.445312 -30.03125 35.863281 -31.28125 30.824219 -31.613281 C 34.195312 -32.324219 36.988281 -33.613281 38.902344 -35.738281 C 40.820312 -37.863281 41.859375 -40.695312 41.859375 -44.484375 C 41.859375 -47.527344 41.070312 -50.484375 39.238281 -52.816406 C 37.363281 -55.148438 34.445312 -56.898438 30.238281 -57.523438 C 28.449219 -57.730469 26.78125 -57.8125 25.242188 -57.855469 C 22.160156 -57.898438 19.242188 -57.773438 16.285156 -57.605469 C 14.785156 -57.523438 13.203125 -57.480469 11.496094 -57.480469 L 6.871094 -57.480469 L 7.246094 -51.691406 C 7.457031 -48.191406 7.664062 -43.652344 7.664062 -39.027344 Z M 20.660156 -29.53125 C 22.199219 -29.53125 24.824219 -29.449219 27.65625 -28.949219 C 30.488281 -28.40625 33.445312 -27.40625 35.78125 -25.53125 C 38.070312 -23.660156 39.652344 -20.867188 39.652344 -16.746094 C 39.652344 -12.539062 38.445312 -9.746094 36.445312 -7.832031 C 34.445312 -5.914062 31.699219 -4.914062 28.617188 -4.414062 C 25.53125 -3.914062 22.117188 -3.875 18.910156 -3.875 L 17.035156 -3.875 C 16.996094 -6.414062 16.996094 -9.914062 16.953125 -14.410156 L 16.953125 -21.117188 C 16.910156 -23.660156 16.910156 -26.53125 16.910156 -29.738281 L 16.910156 -40.527344 C 16.910156 -44.484375 16.910156 -48.898438 16.910156 -53.691406 L 20.867188 -53.691406 C 21.949219 -53.691406 23.074219 -53.648438 24.199219 -53.566406 C 26.65625 -53.398438 28.867188 -52.691406 30.488281 -51.191406 C 32.113281 -49.691406 33.113281 -47.359375 33.113281 -43.859375 C 33.113281 -40.820312 32.15625 -38.652344 30.78125 -37.113281 C 29.40625 -35.570312 27.574219 -34.613281 25.78125 -34.113281 C 23.992188 -33.570312 22.242188 -33.40625 21.035156 -33.40625 L 19.742188 -33.40625 Z M 20.660156 -29.53125 "/></g></g></g><g fill="#000000" fill-opacity="1"><g transform="translate(378.811275, 109.884799)"><g><path d="M 8.65625 0 L 11.308594 0 L 11.308594 -72.476562 L 66.128906 1.5 L 68.785156 1.5 L 68.785156 -80.789062 L 66.128906 -80.789062 L 66.128906 -21.121094 L 22.160156 -80.789062 L 8.65625 -80.789062 Z M 8.65625 0 "/></g></g></g><g fill="#000000" fill-opacity="1"><g transform="translate(502.738191, 109.884799)"><g><path d="M 29.429688 -67.167969 C 30.007812 -66.59375 30.351562 -66.246094 30.929688 -65.667969 L 30.929688 0 L 33.585938 0 L 33.585938 -65.667969 C 34.160156 -66.246094 34.507812 -66.59375 35.085938 -67.167969 L 61.515625 -67.167969 L 61.515625 -80.789062 L 2.886719 -80.789062 L 2.886719 -67.167969 Z M 29.429688 -67.167969 "/></g></g></g><g fill="#000000" fill-opacity="1"><g transform="translate(613.355428, 109.884799)"><g><path d="M 17.425781 0 L 25.042969 -19.273438 L 63.820312 -19.273438 L 72.363281 0 L 75.132812 0 L 39.007812 -82.289062 L 36.699219 -82.289062 L 31.046875 -78.480469 L 32.546875 -74.902344 L 2.886719 0 Z M 43.394531 -65.554688 L 62.667969 -21.929688 L 26.082031 -21.929688 Z M 43.394531 -65.554688 "/></g></g></g><g fill="#000000" fill-opacity="1"><g transform="translate(759.762638, 109.884799)"><g><path d="M 8.65625 0 L 11.308594 0 L 11.308594 -80.789062 L 8.65625 -80.789062 Z M 8.65625 0 "/></g></g></g><g fill="#000000" fill-opacity="1"><g transform="translate(848.440708, 109.884799)"><g><path d="M 8.65625 0 L 11.308594 0 L 11.308594 -72.476562 L 66.128906 1.5 L 68.785156 1.5 L 68.785156 -80.789062 L 66.128906 -80.789062 L 66.128906 -21.121094 L 22.160156 -80.789062 L 8.65625 -80.789062 Z M 8.65625 0 "/></g></g></g><g fill="#000000" fill-opacity="1"><g transform="translate(15.092035, 109.884799)"><g><path d="M 19.503906 0 L 25.851562 -71.554688 L 55.972656 1.5 L 58.398438 1.5 L 88.75 -70.515625 L 94.867188 0 L 97.636719 0 L 90.367188 -80.789062 L 78.363281 -80.789062 L 51.472656 -16.734375 L 24.929688 -80.789062 L 12.925781 -80.789062 L 5.769531 0 Z M 19.503906 0 "/></g></g></g><g fill="#000000" fill-opacity="1"><g transform="translate(138.126229, 109.884799)"><g><path d="M 4.847656 -40.394531 C 4.847656 -17.3125 22.503906 1.5 44.546875 1.5 C 66.59375 1.5 84.363281 -17.195312 84.363281 -40.394531 C 84.363281 -63.476562 66.59375 -82.289062 44.546875 -82.289062 C 22.621094 -82.289062 4.847656 -63.589844 4.847656 -40.394531 Z M 44.546875 -68.667969 C 65.089844 -68.667969 81.710938 -55.972656 81.710938 -40.394531 C 81.710938 -24.8125 65.089844 -12.117188 44.546875 -12.117188 C 24.121094 -12.117188 7.5 -24.8125 7.5 -40.394531 C 7.5 -55.972656 24.121094 -68.667969 44.546875 -68.667969 Z M 44.546875 -68.667969 "/></g></g></g><g fill="#000000" fill-opacity="1"><g transform="translate(258.752807, 109.884799)"><g><path d="M 8.65625 -31.277344 C 8.65625 -13.15625 23.3125 1.5 41.316406 1.5 C 59.4375 1.5 74.09375 -13.15625 74.09375 -31.277344 L 74.09375 -80.789062 L 71.4375 -80.789062 L 71.4375 -42.816406 C 71.4375 -22.390625 56.4375 -12.117188 41.433594 -12.117188 C 26.3125 -12.117188 11.308594 -22.390625 11.308594 -42.816406 L 11.308594 -80.789062 L 8.65625 -80.789062 Z M 8.65625 -31.277344 "/></g></g></g><path stroke-linecap="butt" transform="matrix(0.74868, 0, 0, 0.747859, 618.416664, 166.358331)" fill="none" stroke-linejoin="miter" d="M 0.00174253 5.997684 L 426.538691 5.997684 " stroke="#000000" stroke-width="12" stroke-opacity="1" stroke-miterlimit="4"/><path stroke-linecap="butt" transform="matrix(0.74868, 0, 0, 0.747859, 15.092035, 166.358331)" fill="none" stroke-linejoin="miter" d="M 0.00229036 5.997684 L 426.539239 5.997684 " stroke="#000000" stroke-width="12" stroke-opacity="1" stroke-miterlimit="4"/></svg>